HIERARCHY
ROOT Hips
{
	OFFSET 0.000000 100.481300 0.000000
	CHANNELS 6 Xposition Yposition Zposition Xrotation Yrotation Zrotation
	JOINT Spine
	{
		OFFSET -0.279200 12.230698 -2.892100
		CHANNELS 3 Xrotation Yrotation Zrotation
		JOINT Spine1
		{
			OFFSET -0.325700 14.269203 -3.374200
			CHANNELS 3 Xrotation Yrotation Zrotation
			JOINT Spine2
			{
				OFFSET -0.372300 16.307602 -0.352600
				CHANNELS 3 Xrotation Yrotation Zrotation
				JOINT Neck
				{
					OFFSET -0.418800 17.814194 8.416900
					CHANNELS 3 Xrotation Yrotation Zrotation
					JOINT Head
					{
						OFFSET 0.000000 7.031097 3.806800
						CHANNELS 3 Xrotation Yrotation Zrotation
						JOINT HeadTop_End
						{
							OFFSET 0.000000 24.646606 12.978600
							CHANNELS 3 Xrotation Yrotation Zrotation
							End Site
							{
								OFFSET 0.000000 27.854965 0.000000
							}
						}
					}
				}
				JOINT LeftShoulder
				{
					OFFSET 16.952999 14.495407 -7.737500
					CHANNELS 3 Xrotation Yrotation Zrotation
					JOINT LeftArm
					{
						OFFSET 9.308998 -2.777710 0.208600
						CHANNELS 3 Xrotation Yrotation Zrotation
						JOINT LeftForeArm
						{
							OFFSET 29.972298 0.000000 0.000000
							CHANNELS 3 Xrotation Yrotation Zrotation
							JOINT LeftHand
							{
								OFFSET 26.026505 0.000000 0.000000
								CHANNELS 3 Xrotation Yrotation Zrotation
								JOINT LeftHandThumb1
								{
									OFFSET 12.240501 -7.147949 9.207150
									CHANNELS 3 Xrotation Yrotation Zrotation
									JOINT LeftHandThumb2
									{
										OFFSET 4.138618 -2.389435 2.389433
										CHANNELS 3 Xrotation Yrotation Zrotation
										JOINT LeftHandThumb3
										{
											OFFSET 2.726913 -1.574387 1.574386
											CHANNELS 3 Xrotation Yrotation Zrotation
											JOINT LeftHandThumb4
											{
												OFFSET 3.941010 -2.275345 2.275342
												CHANNELS 3 Xrotation Yrotation Zrotation
												End Site
												{
													OFFSET -0.005798 5.087799 0.009903
												}
											}
										}
									}
								}
								JOINT LeftHandIndex1
								{
									OFFSET 24.424698 -1.985611 5.953459
									CHANNELS 3 Xrotation Yrotation Zrotation
									JOINT LeftHandIndex2
									{
										OFFSET 6.426697 0.000000 0.000000
										CHANNELS 3 Xrotation Yrotation Zrotation
										JOINT LeftHandIndex3
										{
											OFFSET 5.337898 0.000000 0.000000
											CHANNELS 3 Xrotation Yrotation Zrotation
											JOINT LeftHandIndex4
											{
												OFFSET 4.409401 0.000000 0.000000
												CHANNELS 3 Xrotation Yrotation Zrotation
												End Site
												{
													OFFSET 0.000000 4.409363 0.014373
												}
											}
										}
									}
								}
								JOINT LeftHandMiddle1
								{
									OFFSET 23.810104 0.000000 0.000000
									CHANNELS 3 Xrotation Yrotation Zrotation
									JOINT LeftHandMiddle2
									{
										OFFSET 7.176498 0.000000 0.000000
										CHANNELS 3 Xrotation Yrotation Zrotation
										JOINT LeftHandMiddle3
										{
											OFFSET 6.774902 0.000000 0.000000
											CHANNELS 3 Xrotation Yrotation Zrotation
											JOINT LeftHandMiddle4
											{
												OFFSET 5.403328 0.000000 0.000000
												CHANNELS 3 Xrotation Yrotation Zrotation
												End Site
												{
													OFFSET -0.027702 5.403244 0.017414
												}
											}
										}
									}
								}
								JOINT LeftHandRing1
								{
									OFFSET 22.908401 -0.839279 -6.020567
									CHANNELS 3 Xrotation Yrotation Zrotation
									JOINT LeftHandRing2
									{
										OFFSET 6.337502 0.000000 0.000000
										CHANNELS 3 Xrotation Yrotation Zrotation
										JOINT LeftHandRing3
										{
											OFFSET 5.779297 0.000000 0.000000
											CHANNELS 3 Xrotation Yrotation Zrotation
											JOINT LeftHandRing4
											{
												OFFSET 4.965698 0.000000 0.000000
												CHANNELS 3 Xrotation Yrotation Zrotation
												End Site
												{
													OFFSET 0.000000 4.965668 0.016186
												}
											}
										}
									}
								}
								JOINT LeftHandPinky1
								{
									OFFSET 20.037003 -1.530319 -10.950146
									CHANNELS 3 Xrotation Yrotation Zrotation
									JOINT LeftHandPinky2
									{
										OFFSET 5.254700 0.000000 0.000000
										CHANNELS 3 Xrotation Yrotation Zrotation
										JOINT LeftHandPinky3
										{
											OFFSET 4.810204 0.000000 0.000000
											CHANNELS 3 Xrotation Yrotation Zrotation
											JOINT LeftHandPinky4
											{
												OFFSET 3.647202 0.000000 0.000000
												CHANNELS 3 Xrotation Yrotation Zrotation
												End Site
												{
													OFFSET 0.000000 3.647186 0.011889
												}
											}
										}
									}
								}
							}
						}
					}
				}
				JOINT RightShoulder
				{
					OFFSET -15.141001 14.495407 -7.737500
					CHANNELS 3 Xrotation Yrotation Zrotation
					JOINT RightArm
					{
						OFFSET -9.308998 -2.777710 0.208500
						CHANNELS 3 Xrotation Yrotation Zrotation
						JOINT RightForeArm
						{
							OFFSET -29.972300 0.000000 0.000000
							CHANNELS 3 Xrotation Yrotation Zrotation
							JOINT RightHand
							{
								OFFSET -26.026505 0.000000 0.000000
								CHANNELS 3 Xrotation Yrotation Zrotation
								JOINT RightHandThumb1
								{
									OFFSET -12.240601 -7.148026 9.207092
									CHANNELS 3 Xrotation Yrotation Zrotation
									JOINT RightHandThumb2
									{
										OFFSET -4.138618 -2.389435 2.389433
										CHANNELS 3 Xrotation Yrotation Zrotation
										JOINT RightHandThumb3
										{
											OFFSET -2.726974 -1.574417 1.574421
											CHANNELS 3 Xrotation Yrotation Zrotation
											JOINT RightHandThumb4
											{
												OFFSET -3.941010 -2.275345 2.275343
												CHANNELS 3 Xrotation Yrotation Zrotation
												End Site
												{
													OFFSET 0.005814 5.087799 0.009927
												}
											}
										}
									}
								}
								JOINT RightHandIndex1
								{
									OFFSET -24.424698 -1.985657 5.953444
									CHANNELS 3 Xrotation Yrotation Zrotation
									JOINT RightHandIndex2
									{
										OFFSET -6.426697 0.000000 0.000000
										CHANNELS 3 Xrotation Yrotation Zrotation
										JOINT RightHandIndex3
										{
											OFFSET -5.337898 0.000000 0.000000
											CHANNELS 3 Xrotation Yrotation Zrotation
											JOINT RightHandIndex4
											{
												OFFSET -4.409401 0.000000 0.000000
												CHANNELS 3 Xrotation Yrotation Zrotation
												End Site
												{
													OFFSET 0.000000 4.409363 0.014408
												}
											}
										}
									}
								}
								JOINT RightHandMiddle1
								{
									OFFSET -23.810097 0.000000 0.000000
									CHANNELS 3 Xrotation Yrotation Zrotation
									JOINT RightHandMiddle2
									{
										OFFSET -7.176498 0.000000 0.000000
										CHANNELS 3 Xrotation Yrotation Zrotation
										JOINT RightHandMiddle3
										{
											OFFSET -6.774902 0.000000 0.000000
											CHANNELS 3 Xrotation Yrotation Zrotation
											JOINT RightHandMiddle4
											{
												OFFSET -5.403328 0.000000 0.000000
												CHANNELS 3 Xrotation Yrotation Zrotation
												End Site
												{
													OFFSET 0.027702 5.403244 0.017457
												}
											}
										}
									}
								}
								JOINT RightHandRing1
								{
									OFFSET -22.908302 -0.839325 -6.020576
									CHANNELS 3 Xrotation Yrotation Zrotation
									JOINT RightHandRing2
									{
										OFFSET -6.337502 0.000000 0.000000
										CHANNELS 3 Xrotation Yrotation Zrotation
										JOINT RightHandRing3
										{
											OFFSET -5.779297 0.000000 0.000000
											CHANNELS 3 Xrotation Yrotation Zrotation
											JOINT RightHandRing4
											{
												OFFSET -4.965698 0.000000 0.000000
												CHANNELS 3 Xrotation Yrotation Zrotation
												End Site
												{
													OFFSET 0.000000 4.965668 0.016226
												}
											}
										}
									}
								}
								JOINT RightHandPinky1
								{
									OFFSET -20.037003 -1.530334 -10.950259
									CHANNELS 3 Xrotation Yrotation Zrotation
									JOINT RightHandPinky2
									{
										OFFSET -5.254700 0.000000 0.000000
										CHANNELS 3 Xrotation Yrotation Zrotation
										JOINT RightHandPinky3
										{
											OFFSET -4.810204 0.000000 0.000000
											CHANNELS 3 Xrotation Yrotation Zrotation
											JOINT RightHandPinky4
											{
												OFFSET -3.647202 0.000000 0.000000
												CHANNELS 3 Xrotation Yrotation Zrotation
												End Site
												{
													OFFSET 0.000000 3.647186 0.011917
												}
											}
										}
									}
								}
							}
						}
					}
				}
			}
		}
	}
	JOINT LeftUpLeg
	{
		OFFSET 15.427100 -6.655098 0.678600
		CHANNELS 3 Xrotation Yrotation Zrotation
		JOINT LeftLeg
		{
			OFFSET 4.081073 -39.591068 13.024000
			CHANNELS 3 Xrotation Yrotation Zrotation
			JOINT LeftFoot
			{
				OFFSET -4.081074 -37.707932 -15.979700
				CHANNELS 3 Xrotation Yrotation Zrotation
				JOINT LeftToeBase
				{
					OFFSET 5.346399 -15.068900 20.645000
					CHANNELS 3 Xrotation Yrotation Zrotation
					JOINT LeftToe_End
					{
						OFFSET 2.754700 0.931300 11.300900
						CHANNELS 3 Xrotation Yrotation Zrotation
						End Site
						{
							OFFSET 0.000000 11.669021 0.000000
						}
					}
				}
			}
		}
	}
	JOINT RightUpLeg
	{
		OFFSET -15.569500 -6.655098 0.678600
		CHANNELS 3 Xrotation Yrotation Zrotation
		JOINT RightLeg
		{
			OFFSET -4.081825 -39.591045 13.023800
			CHANNELS 3 Xrotation Yrotation Zrotation
			JOINT RightFoot
			{
				OFFSET 4.081824 -37.707954 -15.979600
				CHANNELS 3 Xrotation Yrotation Zrotation
				JOINT RightToeBase
				{
					OFFSET -5.346400 -15.068900 20.645000
					CHANNELS 3 Xrotation Yrotation Zrotation
					JOINT RightToe_End
					{
						OFFSET -2.754700 0.931300 11.300900
						CHANNELS 3 Xrotation Yrotation Zrotation
						End Site
						{
							OFFSET 0.000000 11.669021 0.000000
						}
					}
				}
			}
		}
	}
}
MOTION
Frames: 4
Frame Time: 0.033333
-2.324764 77.261948 -0.817061 -5.608859 -17.509852 -0.773702 16.499982 2.430009 -1.658265 2.830700 0.714208 -1.601536 2.835627 0.666740 -1.613244 -3.800926 -3.889110 1.434031 -13.034103 -19.357171 6.242612 0.000000 0.000000 -0.000000 -0.768192 7.393078 -0.160554 11.240448 -18.851286 -55.404886 -0.000131 -73.511748 -0.000135 -4.132430 3.090525 5.593282 12.260693 10.620936 6.228738 3.939045 7.948715 0.746820 -0.579463 1.574991 2.538723 -0.000002 0.000001 -0.000001 0.528433 2.649938 -22.551849 0.308464 2.041609 -17.180965 0.077516 1.032373 -8.587738 -0.000001 0.000001 0.000000 0.527697 2.648161 -22.535830 0.309018 2.043440 -17.196994 0.077531 1.032389 -8.587731 -0.000000 0.000001 -0.000001 0.528433 2.649938 -22.551843 0.308466 2.041608 -17.180960 0.077515 1.032377 -8.587736 0.000001 0.000001 -0.000001 2.075194 6.399689 -22.163501 0.308558 -2.015407 -17.669255 0.077526 1.032388 -8.587732 -0.000002 0.000002 0.000002 -2.217644 -13.391512 8.301707 -3.858500 52.404148 53.719161 0.000026 79.478929 -0.000010 19.303195 -16.381229 -9.083487 6.142424 -12.321301 -0.995545 4.637210 -8.634138 -0.225408 -1.273760 0.137315 -2.094866 -0.000001 -0.000000 0.000001 0.514613 -2.629732 22.140762 0.591648 -2.811455 23.763835 0.149401 -1.436492 11.874655 0.000001 -0.000002 -0.000001 0.514614 -2.629732 22.140757 0.591650 -2.811457 23.763835 0.149405 -1.436498 11.874656 0.000002 -0.000001 -0.000001 0.514613 -2.629731 22.140762 0.591648 -2.811460 23.763832 0.149401 -1.436493 11.874656 -0.000002 -0.000002 0.000001 0.514613 -2.629732 22.140757 0.591648 -2.811461 23.763832 0.149398 -1.436492 11.874656 0.000002 -0.000001 0.000000 -31.269986 11.076493 12.353988 71.312236 10.408279 8.300663 -12.221355 3.068716 0.722234 -6.732081 1.105178 -11.565776 0.000001 -0.000000 -0.000000 -26.765372 -10.084997 -1.810452 57.825372 -6.682604 -9.936741 -26.730352 -1.257816 7.159597 -0.028395 -0.000007 0.000001 0.000000 -0.000002 0.000000 
-2.336666 78.922783 -6.883355 -5.403790 -14.978784 -1.024558 16.769962 0.981986 -1.149704 2.783025 0.317564 -1.681669 2.785551 0.265472 -1.685640 -3.957149 -4.173770 2.321659 -13.040235 -19.670736 6.339241 -0.000000 0.000003 -0.000000 -0.847734 7.549563 0.498979 7.285296 -20.395891 -56.678361 0.000045 -76.301778 0.000062 -0.742540 3.988845 8.107640 12.260698 10.620939 6.228738 3.939044 7.948714 0.746820 -0.579459 1.574988 2.538717 0.000004 -0.000001 0.000003 0.528433 2.649939 -22.551847 0.308468 2.041614 -17.180962 0.077517 1.032371 -8.587735 0.000003 0.000002 -0.000001 0.527698 2.648163 -22.535830 0.309021 2.043442 -17.196992 0.077531 1.032382 -8.587735 -0.000002 0.000001 0.000001 0.528433 2.649939 -22.551847 0.308465 2.041613 -17.180963 0.077517 1.032379 -8.587739 -0.000002 -0.000000 0.000000 2.075194 6.399692 -22.163498 0.308554 -2.015410 -17.669247 0.077526 1.032388 -8.587731 -0.000000 -0.000003 -0.000001 -2.091581 -14.465004 10.752763 6.697808 49.602538 46.176300 -0.000312 81.264539 0.000322 16.881610 -15.409494 -7.733914 6.142422 -12.321302 -0.995545 4.637205 -8.634139 -0.225406 -1.273764 0.137312 -2.094864 -0.000000 0.000001 -0.000000 0.514610 -2.629732 22.140762 0.591643 -2.811457 23.763830 0.149400 -1.436492 11.874656 0.000000 0.000001 -0.000000 0.514611 -2.629732 22.140763 0.591646 -2.811460 23.763837 0.149405 -1.436499 11.874658 0.000001 0.000000 0.000000 0.514612 -2.629732 22.140762 0.591648 -2.811458 23.763828 0.149402 -1.436498 11.874652 0.000002 -0.000003 -0.000001 0.514610 -2.629732 22.140763 0.591645 -2.811463 23.763833 0.149397 -1.436494 11.874654 -0.000001 -0.000002 -0.000001 -26.379147 10.916697 10.306142 70.899467 9.362611 6.907722 -9.527034 0.690859 -0.226622 -8.619994 2.242334 -16.783991 -0.000001 0.000001 0.000000 -30.653500 -13.962775 -0.490287 54.302866 -5.056021 -10.571690 -19.440738 -0.294710 3.353559 -0.722633 -0.000009 -0.000001 -0.000000 0.000001 0.000000 
-1.890849 81.894173 -13.199825 -4.436115 -14.328472 -1.329770 16.381387 -0.911010 -0.749404 2.258372 -0.189515 -1.465353 2.257419 -0.234021 -1.459335 -3.538907 -3.925699 2.718130 -12.294114 -17.948571 6.323191 -0.000000 -0.000001 -0.000000 -0.930692 7.708516 0.970337 5.317815 -22.576115 -57.352272 -0.000054 -79.489885 -0.000049 2.758310 5.594680 8.811866 12.260695 10.620935 6.228741 3.939047 7.948713 0.746823 -0.579466 1.574987 2.538720 0.000000 -0.000000 0.000001 0.528432 2.649940 -22.551852 0.308466 2.041611 -17.180963 0.077517 1.032370 -8.587739 0.000001 -0.000002 -0.000001 0.527700 2.648163 -22.535835 0.309017 2.043444 -17.196997 0.077527 1.032383 -8.587730 0.000000 -0.000001 -0.000001 0.528432 2.649940 -22.551850 0.308466 2.041609 -17.180957 0.077513 1.032373 -8.587735 0.000000 -0.000003 -0.000000 2.075195 6.399691 -22.163496 0.308563 -2.015406 -17.669254 0.077527 1.032387 -8.587729 0.000002 0.000002 0.000002 -2.083167 -14.353298 10.517393 12.267503 45.851169 45.538053 -0.000115 82.565560 0.000140 17.108246 -16.149467 -8.152435 6.142422 -12.321298 -0.995548 4.637211 -8.634136 -0.225406 -1.273761 0.137313 -2.094860 -0.000002 -0.000002 -0.000001 0.514616 -2.629732 22.140757 0.591646 -2.811458 23.763833 0.149400 -1.436494 11.874654 0.000003 -0.000000 -0.000001 0.514617 -2.629732 22.140757 0.591648 -2.811460 23.763833 0.149406 -1.436496 11.874654 0.000000 0.000002 0.000001 0.514618 -2.629732 22.140757 0.591650 -2.811458 23.763828 0.149400 -1.436494 11.874655 0.000003 -0.000000 -0.000002 0.514616 -2.629732 22.140757 0.591647 -2.811463 23.763830 0.149398 -1.436495 11.874654 0.000000 0.000001 -0.000000 -21.051999 13.553415 7.412021 65.912425 7.567290 8.579469 -6.741686 -0.229267 -1.631213 -20.308654 3.957386 -12.035649 0.000001 -0.000000 -0.000000 -33.156952 -16.237919 1.641475 46.738360 -2.449610 -11.096762 -9.934508 0.225109 0.114140 -0.879032 0.000006 -0.000001 0.000000 0.000001 -0.000000 
-1.138502 85.321579 -19.493179 -2.327963 -15.463946 -1.566346 14.880491 -2.197512 -0.295131 1.724132 -0.560794 -0.998449 1.723153 -0.585848 -0.984011 -3.402992 -3.377425 2.559414 -11.534341 -15.211600 5.902194 -0.000000 -0.000001 0.000001 -0.988730 8.125102 0.628266 3.756952 -23.910556 -57.517774 0.000454 -82.789816 0.000451 7.090582 5.757253 7.455586 12.260698 10.620935 6.228741 3.939044 7.948715 0.746818 -0.579465 1.574990 2.538724 -0.000001 -0.000001 0.000001 0.528433 2.649941 -22.551845 0.308469 2.041614 -17.180963 0.077518 1.032374 -8.587737 -0.000000 0.000000 -0.000000 0.527700 2.648165 -22.535832 0.309018 2.043438 -17.196994 0.077531 1.032387 -8.587731 -0.000000 0.000001 -0.000000 0.528433 2.649941 -22.551842 0.308467 2.041611 -17.180962 0.077517 1.032379 -8.587738 -0.000001 -0.000000 -0.000000 2.075193 6.399692 -22.163501 0.308557 -2.015407 -17.669254 0.077526 1.032388 -8.587731 0.000000 0.000001 0.000001 -2.171828 -13.250760 8.075405 14.368179 41.831176 48.690486 -0.000172 83.728243 0.000159 17.824840 -18.352614 -8.218934 6.142419 -12.321298 -0.995548 4.637204 -8.634133 -0.225411 -1.273761 0.137317 -2.094866 -0.000000 -0.000001 -0.000003 0.514611 -2.629733 22.140762 0.591650 -2.811460 23.763830 0.149399 -1.436494 11.874657 0.000002 -0.000000 -0.000000 0.514612 -2.629733 22.140763 0.591646 -2.811459 23.763830 0.149411 -1.436500 11.874654 0.000001 -0.000001 0.000000 0.514611 -2.629733 22.140762 0.591646 -2.811461 23.763830 0.149399 -1.436496 11.874657 -0.000000 0.000000 -0.000001 0.514611 -2.629733 22.140763 0.591648 -2.811465 23.763830 0.149401 -1.436491 11.874654 0.000003 -0.000002 -0.000000 -16.650481 15.241441 4.973768 59.226373 8.199021 9.860454 -5.064458 0.026939 -2.713181 -23.915412 3.601426 -10.573353 0.000000 -0.000000 0.000000 -35.055768 -21.520748 3.925051 36.524816 4.690422 -11.848199 1.845330 3.555417 -3.307382 -1.014127 0.000002 -0.000001 0.000000 -0.000002 -0.000000 
